<svg width="390" height="120" viewBox="0 0 390 120" fill="none" xmlns="http://www.w3.org/2000/svg">
  <g id="top-header">
    <!-- Background -->
    <rect width="390" height="120" fill="#E8F5F1"/>
    
    <!-- Status Bar -->
    <g id="status-bar" transform="translate(20, 12)">
      <text x="0" y="15" font-family="Arial" font-size="15" fill="#000000">8:25</text>
      
      <g id="status-icons" transform="translate(320, 0)">
        <!-- Signal -->
        <rect x="0" y="4" width="4" height="4" fill="#000000"/>
        <rect x="8" y="4" width="4" height="4" fill="#000000"/>
        <rect x="16" y="4" width="4" height="4" fill="#000000"/>
        
        <!-- WiFi -->
        <path d="M26 12 L28 10 C32.97 5.03 41.03 5.03 46 10 L48 12 M30 8 L32 6 C34.76 3.24 39.24 3.24 42 6 L44 8 M34 4 L36 2 L38 4" stroke="#000000" fill="none" stroke-width="1"/>
        
        <!-- Battery -->
        <rect x="48" y="5" width="18" height="10" rx="2" stroke="#000000" fill="none" stroke-width="1"/>
        <rect x="66" y="8.5" width="3" height="5" rx="1" fill="#000000"/>
        <rect x="49" y="6" width="16" height="8" rx="1" fill="#000000"/>
      </g>
    </g>
    
    <!-- Top Icons Row -->
    <g id="top-icons" transform="translate(20, 40)">
      <!-- Left: Notification & Settings -->
      <g id="left-icons">
        <circle cx="20" cy="20" r="20" fill="#FFFFFF"/>
        <!-- Bell Icon -->
        <path d="M15 17 C15 14 17 12 20 12 C23 12 25 14 25 17 L25 20 L15 20 L15 17 M13 20 L27 20 L26 22 C26 23 25 24 24 24 L16 24 C15 24 14 23 14 22 L13 20 M20 24 L20 26" stroke="#1E7C6F" fill="none" stroke-width="1.5" stroke-linecap="round"/>
        
        <circle cx="72" cy="20" r="20" fill="#FFFFFF"/>
        <!-- Settings Icon -->
        <circle cx="72" cy="20" r="3" stroke="#1E7C6F" fill="none" stroke-width="1.5"/>
        <path d="M72 13 L72 11 M72 29 L72 27 M79 20 L81 20 M63 20 L65 20 M76.5 15.5 L77.9 14.1 M66.1 25.9 L67.5 24.5 M76.5 24.5 L77.9 25.9 M66.1 14.1 L67.5 15.5" stroke="#1E7C6F" stroke-width="1.5" stroke-linecap="round"/>
      </g>
      
      <!-- Right: Ministry Logo & Saudi Emblem -->
      <g id="right-logos" transform="translate(246, 0)">
        <!-- Ministry Logo - Green Bars -->
        <g id="ministry-logo">
          <rect x="4" y="8" width="4" height="28" fill="#1E7C6F" rx="1"/>
          <rect x="10" y="4" width="4" height="36" fill="#1E7C6F" rx="1"/>
          <rect x="16" y="10" width="4" height="24" fill="#1E7C6F" rx="1"/>
          <rect x="22" y="6" width="4" height="32" fill="#1E7C6F" rx="1"/>
          <rect x="28" y="12" width="4" height="20" fill="#1E7C6F" rx="1"/>
          <rect x="34" y="8" width="4" height="28" fill="#1E7C6F" rx="1"/>
        </g>
        
        <!-- Saudi Emblem -->
        <g id="saudi-emblem" transform="translate(55, 0)">
          <circle cx="22" cy="22" r="22" fill="#FFFFFF"/>
          <circle cx="22" cy="22" r="20" fill="#1E7C6F"/>
          <path d="M22 10 L16 17 L19 17 L19 24 L25 24 L25 17 L28 17 Z" fill="#D4AF37"/>
          <rect x="14" y="26" width="16" height="2.5" rx="0.5" fill="#D4AF37"/>
        </g>
      </g>
    </g>
  </g>
</svg>
