<svg width="390" height="520" viewBox="0 0 390 520" fill="none" xmlns="http://www.w3.org/2000/svg">
  <g id="quick-access">
    <!-- Section Title -->
    <text x="370" y="16" font-family="Arial" font-size="16" fill="#111827" text-anchor="end">الوصول السريع</text>
    
    <!-- Featured Card: My Vehicles -->
    <g id="featured-card" transform="translate(20, 34)">
      <rect width="350" height="80" rx="20" fill="#FFFFFF" filter="url(#cardShadow)"/>
      
      <!-- Icon Container -->
      <rect x="274" y="10" width="60" height="60" rx="18" fill="#E8F5F1"/>
      
      <!-- Vehicle Icon -->
      <g transform="translate(289, 25)">
        <path d="M5 10 L15 10 M15 10 L11 6 M15 10 L11 14 M25 10 L15 10 M15 10 L19 6 M15 10 L19 14" stroke="#1E7C6F" stroke-width="1.5" stroke-linecap="round" fill="none"/>
        <circle cx="8" cy="20" r="3" stroke="#1E7C6F" stroke-width="1.5" fill="none"/>
        <circle cx="22" cy="20" r="3" stroke="#1E7C6F" stroke-width="1.5" fill="none"/>
      </g>
      
      <!-- Text -->
      <text x="260" y="32" font-family="Arial" font-size="15" fill="#111827" text-anchor="end">مركباتي</text>
      <text x="260" y="55" font-family="Arial" font-size="11.5" fill="#6B7280" text-anchor="end">عرض التفاصيل، تجديد الوثائق، الإبلاغ عن الحوادث، والمزيد.</text>
    </g>
    
    <!-- Service Grid -->
    <g id="service-grid" transform="translate(20, 131)">
      
      <!-- Row 1 -->
      <!-- Card: Absher Travel -->
      <g id="service-absher-travel">
        <rect width="170" height="140" rx="20" fill="#FFFFFF" filter="url(#cardShadow)"/>
        <rect x="55" y="20" width="60" height="60" rx="18" fill="#E8F5F1"/>
        
        <!-- Map Icon -->
        <g transform="translate(70, 35)">
          <path d="M5 5 L5 25 L10 22 L10 2 Z M10 2 L10 22 L20 18 L20 0 Z M20 0 L20 18 L25 20 L25 2 Z" stroke="#1E7C6F" stroke-width="1.5" fill="none"/>
        </g>
        
        <text x="85" y="115" font-family="Arial" font-size="13" fill="#111827" text-anchor="middle">أبشر سفر</text>
      </g>
      
      <!-- Card: Authentication Services -->
      <g id="service-authentication" transform="translate(180, 0)">
        <rect width="170" height="140" rx="20" fill="#FFFFFF" filter="url(#cardShadow)"/>
        <rect x="55" y="20" width="60" height="60" rx="18" fill="#E8F5F1"/>
        
        <!-- Fingerprint Icon -->
        <g transform="translate(70, 35)">
          <circle cx="15" cy="15" r="12" stroke="#1E7C6F" stroke-width="1.5" fill="none"/>
          <path d="M15 3 C8 3 3 8 3 15 M15 3 C22 3 27 8 27 15 M8 15 C8 11 11 8 15 8 C19 8 22 11 22 15" stroke="#1E7C6F" stroke-width="1.5" fill="none"/>
        </g>
        
        <text x="85" y="115" font-family="Arial" font-size="13" fill="#111827" text-anchor="middle">خدمات التوثيق</text>
      </g>
      
      <!-- Row 2 -->
      <!-- Card: Minor Accident -->
      <g id="service-accident" transform="translate(0, 152)">
        <rect width="170" height="140" rx="20" fill="#FFFFFF" filter="url(#cardShadow)"/>
        <rect x="55" y="20" width="60" height="60" rx="18" fill="#E8F5F1"/>
        
        <!-- Building Icon -->
        <g transform="translate(70, 35)">
          <rect x="4" y="2" width="22" height="26" rx="2" stroke="#1E7C6F" stroke-width="1.5" fill="none"/>
          <rect x="10" y="20" width="4" height="8" fill="#1E7C6F"/>
          <rect x="8" y="6" width="3" height="3" fill="#1E7C6F"/>
          <rect x="8" y="12" width="3" height="3" fill="#1E7C6F"/>
          <rect x="17" y="6" width="3" height="3" fill="#1E7C6F"/>
          <rect x="17" y="12" width="3" height="3" fill="#1E7C6F"/>
        </g>
        
        <text x="85" y="115" font-family="Arial" font-size="13" fill="#111827" text-anchor="middle">تسجيل حادث بسيط</text>
      </g>
      
      <!-- Card: Traffic Violations -->
      <g id="service-violations" transform="translate(180, 152)">
        <rect width="170" height="140" rx="20" fill="#FFFFFF" filter="url(#cardShadow)"/>
        <rect x="55" y="20" width="60" height="60" rx="18" fill="#E8F5F1"/>
        
        <!-- Document Icon -->
        <g transform="translate(70, 35)">
          <path d="M8 2 L8 28 L22 28 L22 10 L16 2 Z" stroke="#1E7C6F" stroke-width="1.5" fill="none"/>
          <path d="M16 2 L16 10 L22 10" stroke="#1E7C6F" stroke-width="1.5" fill="none"/>
          <line x1="11" y1="15" x2="19" y2="15" stroke="#1E7C6F" stroke-width="1.5"/>
          <line x1="11" y1="20" x2="19" y2="20" stroke="#1E7C6F" stroke-width="1.5"/>
        </g>
        
        <text x="85" y="115" font-family="Arial" font-size="13" fill="#111827" text-anchor="middle">المخالفات المرورية</text>
      </g>
    </g>
    
    <!-- Weapons Card -->
    <g id="weapons-card" transform="translate(20, 435)">
      <rect width="350" height="80" rx="20" fill="#FFFFFF" filter="url(#cardShadow)"/>
      
      <!-- Icon Container -->
      <rect x="274" y="10" width="60" height="60" rx="18" fill="#E8F5F1"/>
      
      <!-- Lightning Icon -->
      <g transform="translate(289, 25)">
        <path d="M20 5 L10 18 L15 18 L15 27 L25 14 L20 14 Z" stroke="#1E7C6F" stroke-width="1.5" stroke-linecap="round" stroke-linejoin="round" fill="none"/>
      </g>
      
      <!-- Text -->
      <text x="260" y="32" font-family="Arial" font-size="15" fill="#111827" text-anchor="end">أسلحتي</text>
      <text x="260" y="55" font-family="Arial" font-size="11.5" fill="#6B7280" text-anchor="end">عرض تفاصيل الأسلحة وإصدار وعرض تصاريح نقل السلاح</text>
    </g>
  </g>
  
  <!-- Shadow Filter -->
  <defs>
    <filter id="cardShadow" x="-10%" y="-10%" width="120%" height="120%">
      <feGaussianBlur in="SourceAlpha" stdDeviation="2"/>
      <feOffset dx="0" dy="1" result="offsetblur"/>
      <feComponentTransfer>
        <feFuncA type="linear" slope="0.08"/>
      </feComponentTransfer>
      <feMerge>
        <feMergeNode/>
        <feMergeNode in="SourceGraphic"/>
      </feMerge>
    </filter>
  </defs>
</svg>
