<svg width="390" height="90" viewBox="0 0 390 90" fill="none" xmlns="http://www.w3.org/2000/svg">
  <g id="bottom-navigation">
    <!-- Background -->
    <rect width="390" height="90" fill="#FFFFFF"/>
    <line x1="0" y1="0" x2="390" y2="0" stroke="#E5E7EB" stroke-width="1"/>
    
    <!-- Nav Items Container -->
    <g id="nav-items" transform="translate(10, 8)">
      
      <!-- Other Services -->
      <g id="nav-other" transform="translate(0, 0)">
        <!-- Grid Icon -->
        <rect x="22" y="4" width="8" height="8" rx="2" stroke="#9CA3AF" stroke-width="2" fill="none"/>
        <rect x="34" y="4" width="8" height="8" rx="2" stroke="#9CA3AF" stroke-width="2" fill="none"/>
        <rect x="22" y="16" width="8" height="8" rx="2" stroke="#9CA3AF" stroke-width="2" fill="none"/>
        <rect x="34" y="16" width="8" height="8" rx="2" stroke="#9CA3AF" stroke-width="2" fill="none"/>
        
        <text x="32" y="42" font-family="Arial" font-size="10" fill="#9CA3AF" text-anchor="middle">خدمات أخرى</text>
      </g>
      
      <!-- My Clients -->
      <g id="nav-clients" transform="translate(74, 0)">
        <!-- User Icon -->
        <circle cx="32" cy="10" r="4" stroke="#9CA3AF" stroke-width="2" fill="none"/>
        <path d="M22 24 C22 19 26 16 32 16 C38 16 42 19 42 24" stroke="#9CA3AF" stroke-width="2" fill="none"/>
        
        <text x="32" y="42" font-family="Arial" font-size="10" fill="#9CA3AF" text-anchor="middle">عملائي</text>
      </g>
      
      <!-- My Family -->
      <g id="nav-family" transform="translate(148, 0)">
        <!-- Users Icon -->
        <circle cx="28" cy="10" r="3" stroke="#9CA3AF" stroke-width="2" fill="none"/>
        <circle cx="36" cy="10" r="3" stroke="#9CA3AF" stroke-width="2" fill="none"/>
        <path d="M20 24 C20 20 23 18 28 18 C32 18 35 20 35 24" stroke="#9CA3AF" stroke-width="2" fill="none"/>
        <path d="M35 24 C35 20 38 18 36 18 C40 18 44 20 44 24" stroke="#9CA3AF" stroke-width="2" fill="none"/>
        
        <text x="32" y="42" font-family="Arial" font-size="10" fill="#9CA3AF" text-anchor="middle">عائلتي</text>
      </g>
      
      <!-- My Services -->
      <g id="nav-services" transform="translate(222, 0)">
        <!-- Lock Icon -->
        <rect x="26" y="14" width="12" height="10" rx="2" stroke="#9CA3AF" stroke-width="2" fill="none"/>
        <path d="M28 14 L28 10 C28 8 30 6 32 6 C34 6 36 8 36 10 L36 14" stroke="#9CA3AF" stroke-width="2" fill="none"/>
        
        <text x="32" y="42" font-family="Arial" font-size="10" fill="#9CA3AF" text-anchor="middle">خدماتي</text>
      </g>
      
      <!-- Home - Active -->
      <g id="nav-home" transform="translate(296, 0)">
        <!-- Home Icon - Filled -->
        <path d="M20 14 L32 4 L44 14 L44 24 L38 24 L38 18 L26 18 L26 24 L20 24 Z" fill="#1E7C6F"/>
        
        <text x="32" y="42" font-family="Arial" font-size="10" fill="#1E7C6F" text-anchor="middle">الرئيسية</text>
      </g>
    </g>
    
    <!-- Home Indicator -->
    <g id="home-indicator" transform="translate(129, 64)">
      <rect width="132" height="4" rx="2" fill="#111827"/>
    </g>
  </g>
</svg>
